<?xml version="1.0" encoding="UTF-8"?>
<svg id="Layer_1" xmlns="http://www.w3.org/2000/svg" version="1.1" viewBox="0 0 504 288">
  <!-- Generator: Adobe Illustrator 29.8.2, SVG Export Plug-In . SVG Version: 2.1.1 Build 3)  -->
  <defs>
    <style>
      .st0 {
        fill: #50c2bb;
      }

      .st1 {
        fill: #fff;
      }
    </style>
  </defs>
  <path class="st1" d="M84.93,179.5c24.36,0,45.49-12.93,56.18-32.32l-27.84-15.91c-4.98,10.2-15.67,16.41-28.6,16.41-19.14,0-33.3-14.17-33.3-33.8s14.17-34.06,33.3-34.06c12.68,0,23.37,6.46,28.34,16.65l27.59-16.15c-10.19-19.14-31.32-32.07-55.68-32.07-37.79,0-65.64,28.59-65.64,65.64s27.85,65.62,65.64,65.62M225.11,48.24c-18.15,0-31.33,6.72-40.28,18.15V2h-32.07v174.01h32.07v-14.67c8.94,11.45,22.13,18.15,40.28,18.15,33.31,0,60.66-28.58,60.66-65.62s-27.35-65.64-60.66-65.64M219.14,148.92c-19.65,0-34.31-14.17-34.31-35.04s14.67-35.06,34.31-35.06,34.54,14.17,34.54,35.06-14.67,35.04-34.54,35.04M372.03,82.54v-30.82h-28.09V16.91l-32.07,9.69v25.11h-21.63v30.82h21.63v51.71c0,33.56,15.17,46.75,60.16,41.76v-29.08c-18.4.99-28.09.75-28.09-12.68v-51.71h28.09ZM421.25,87.02c0-6.71,6.46-10.19,14.42-10.19,9.2,0,16.15,4.72,19.88,12.67l27.35-14.91c-9.7-17.16-27.09-26.36-47.23-26.36-25.61,0-47.24,14.17-47.24,39.52,0,43.77,64.14,33.82,64.14,51.97,0,7.2-6.96,10.68-17.16,10.68-12.43,0-20.88-5.96-24.36-16.16l-27.85,15.67c8.96,19.14,27.36,29.57,52.21,29.57,26.6,0,49.98-12.93,49.98-39.77,0-45.75-64.14-34.31-64.14-52.71"/>
  <path class="st0" d="M44.76,285.5c14.07,0,25.47-11.4,25.47-25.47s-11.4-25.48-25.47-25.48-25.47,11.41-25.47,25.48,11.4,25.47,25.47,25.47"/>
  <path class="st0" d="M183.15,285.5c14.07,0,25.47-11.4,25.47-25.47s-11.4-25.48-25.47-25.48-25.47,11.41-25.47,25.48,11.4,25.47,25.47,25.47"/>
  <path class="st0" d="M321.53,285.5c14.07,0,25.47-11.4,25.47-25.47s-11.4-25.48-25.47-25.48-25.47,11.41-25.47,25.48,11.4,25.47,25.47,25.47"/>
  <path class="st0" d="M435.37,253.22c-3.76,13.56,4.17,27.59,17.73,31.35s27.6-4.17,31.36-17.73-4.18-27.59-17.74-31.35c-13.56-3.76-27.59,4.17-31.35,17.73"/>
</svg>